<svg xmlns="http://www.w3.org/2000/svg" version="1.1" xmlns:xlink="http://www.w3.org/1999/xlink" xmlns:svgjs="http://svgjs.com/svgjs" width="3000" height="1000" preserveAspectRatio="none" viewBox="0 0 3000 1000"><g mask="url(&quot;#SvgjsMask1011&quot;)" fill="none"><rect width="3000" height="1000" x="0" y="0" fill="rgba(243, 247, 255, 1)"></rect><path d="M3050 1000L0 1000 L0 668.7Q48.64 567.34, 150 615.98Q212.96 528.94, 300 591.91Q341.19 483.1, 450 524.29Q532.55 456.84, 600 539.39Q773.61 463, 850 636.6Q882.64 519.24, 1000 551.88Q1104.43 406.32, 1250 510.75Q1421.49 432.24, 1500 603.73Q1598.96 452.69, 1750 551.66Q1911.41 463.08, 2000 624.49Q2051.34 525.83, 2150 577.16Q2216.7 493.86, 2300 560.56Q2363.16 473.72, 2450 536.89Q2580.61 517.5, 2600 648.11Q2601.01 499.12, 2750 500.13Q2880.31 480.44, 2900 610.75Q2950.79 511.54, 3050 562.33z" fill="#182f5d"></path><path d="M3150 1000L0 1000 L0 646.24Q87.7 583.94, 150 671.65Q310.48 582.13, 400 742.61Q516.06 608.67, 650 724.73Q728.54 553.27, 900 631.81Q1084.8 566.61, 1150 751.4Q1189.84 641.24, 1300 681.07Q1351.99 583.07, 1450 635.06Q1637.65 572.71, 1700 760.37Q1784.64 595.01, 1950 679.65Q2127.26 606.9, 2200 784.16Q2269.33 703.49, 2350 772.82Q2488.07 660.89, 2600 798.97Q2667.05 716.02, 2750 783.07Q2815.3 598.37, 3000 663.67Q3088.36 602.02, 3150 690.38z" fill="#25467d"></path><path d="M3250 1000L0 1000 L0 842.49Q39.06 731.55, 150 770.61Q266.37 636.98, 400 753.34Q605.7 709.04, 650 914.74Q752.23 766.97, 900 869.2Q982.13 801.33, 1050 883.46Q1121.61 705.07, 1300 776.68Q1391.11 717.78, 1450 808.89Q1608.41 717.3, 1700 875.71Q1801.42 727.13, 1950 828.56Q2111.92 740.48, 2200 902.4Q2230.62 783.02, 2350 813.64Q2397.1 710.74, 2500 757.84Q2641.09 648.93, 2750 790.02Q2899.17 689.19, 3000 838.36Q3113.68 702.04, 3250 815.71z" fill="#356cb1"></path><path d="M3250 1000L0 1000 L0 918.84Q170.5 839.35, 250 1009.85Q357.94 867.79, 500 975.73Q548.32 874.05, 650 922.36Q821.54 843.9, 900 1015.44Q1004.17 869.61, 1150 973.78Q1269.99 843.77, 1400 963.76Q1482.12 795.88, 1650 877.99Q1828.33 806.32, 1900 984.64Q1949.43 884.07, 2050 933.5Q2104.82 838.32, 2200 893.13Q2313.57 856.69, 2350 970.26Q2514.16 884.42, 2600 1048.59Q2665.57 964.16, 2750 1029.74Q2864.99 894.74, 3000 1009.73Q3094.75 854.48, 3250 949.23z" fill="white"></path></g><defs><mask id="SvgjsMask1011"><rect width="3000" height="1000" fill="#ffffff"></rect></mask></defs></svg>